<mxfile host="app.diagrams.net" modified="2022-11-14T06:25:01.456Z" agent="5.0 (Windows NT 10.0; Win64; x64) AppleWebKit/537.36 (KHTML, like Gecko) Chrome/104.0.5112.124 YaBrowser/22.9.5.710 Yowser/2.5 Safari/537.36" etag="f9uMft8xRA5s0riw3rWS" version="20.5.3" type="github" pages="4">
  <diagram id="C5RBs43oDa-KdzZeNtuy" name="Page-1">
    <mxGraphModel dx="1310" dy="751" grid="1" gridSize="10" guides="1" tooltips="1" connect="1" arrows="1" fold="1" page="1" pageScale="1" pageWidth="1169" pageHeight="1654" math="0" shadow="0">
      <root>
        <mxCell id="WIyWlLk6GJQsqaUBKTNV-0" />
        <mxCell id="WIyWlLk6GJQsqaUBKTNV-1" parent="WIyWlLk6GJQsqaUBKTNV-0" />
        <mxCell id="1uh8Qk2TYRjVw8GSLjD0-17" value="- category берется из документа Rider&lt;br style=&quot;font-size: 10px;&quot;&gt;- categoryCurrent вычисляется ruleCategory()" style="rounded=0;whiteSpace=wrap;html=1;fontSize=10;align=left;" vertex="1" parent="WIyWlLk6GJQsqaUBKTNV-1">
          <mxGeometry x="80" y="270" width="230" height="60" as="geometry" />
        </mxCell>
        <mxCell id="1uh8Qk2TYRjVw8GSLjD0-18" value="Сохранение результата" style="text;html=1;align=center;verticalAlign=middle;resizable=0;points=[];autosize=1;strokeColor=none;fillColor=none;" vertex="1" parent="WIyWlLk6GJQsqaUBKTNV-1">
          <mxGeometry x="100" y="70" width="160" height="30" as="geometry" />
        </mxCell>
        <mxCell id="1uh8Qk2TYRjVw8GSLjD0-19" style="edgeStyle=orthogonalEdgeStyle;rounded=0;orthogonalLoop=1;jettySize=auto;html=1;exitX=0.5;exitY=1;exitDx=0;exitDy=0;entryX=0.5;entryY=0;entryDx=0;entryDy=0;" edge="1" parent="WIyWlLk6GJQsqaUBKTNV-1" source="1uh8Qk2TYRjVw8GSLjD0-21" target="1uh8Qk2TYRjVw8GSLjD0-17">
          <mxGeometry relative="1" as="geometry" />
        </mxCell>
        <mxCell id="1uh8Qk2TYRjVw8GSLjD0-20" style="edgeStyle=orthogonalEdgeStyle;rounded=0;orthogonalLoop=1;jettySize=auto;html=1;entryX=0;entryY=0.5;entryDx=0;entryDy=0;fontSize=10;" edge="1" parent="WIyWlLk6GJQsqaUBKTNV-1" source="1uh8Qk2TYRjVw8GSLjD0-21" target="1uh8Qk2TYRjVw8GSLjD0-23">
          <mxGeometry relative="1" as="geometry" />
        </mxCell>
        <mxCell id="1uh8Qk2TYRjVw8GSLjD0-21" value="райдер зарегистрирован" style="rhombus;whiteSpace=wrap;html=1;fontSize=10;" vertex="1" parent="WIyWlLk6GJQsqaUBKTNV-1">
          <mxGeometry x="60" y="150" width="270" height="80" as="geometry" />
        </mxCell>
        <mxCell id="1uh8Qk2TYRjVw8GSLjD0-22" value="да" style="text;html=1;align=center;verticalAlign=middle;resizable=0;points=[];autosize=1;strokeColor=none;fillColor=none;" vertex="1" parent="WIyWlLk6GJQsqaUBKTNV-1">
          <mxGeometry x="190" y="235" width="40" height="30" as="geometry" />
        </mxCell>
        <mxCell id="1uh8Qk2TYRjVw8GSLjD0-23" value="- category не передается в БД&lt;br style=&quot;font-size: 10px;&quot;&gt;- categoryCurrent вычисляется ruleCategory()&lt;br&gt;" style="rounded=0;whiteSpace=wrap;html=1;fontSize=10;align=left;" vertex="1" parent="WIyWlLk6GJQsqaUBKTNV-1">
          <mxGeometry x="400" y="160" width="230" height="60" as="geometry" />
        </mxCell>
        <mxCell id="1uh8Qk2TYRjVw8GSLjD0-24" value="нет" style="text;html=1;align=center;verticalAlign=middle;resizable=0;points=[];autosize=1;strokeColor=none;fillColor=none;fontSize=10;" vertex="1" parent="WIyWlLk6GJQsqaUBKTNV-1">
          <mxGeometry x="340" y="160" width="40" height="30" as="geometry" />
        </mxCell>
      </root>
    </mxGraphModel>
  </diagram>
  <diagram id="9ELT80te7nLKwsZwj2t3" name="points team">
    <mxGraphModel dx="2293" dy="1314" grid="1" gridSize="10" guides="1" tooltips="1" connect="1" arrows="1" fold="1" page="1" pageScale="1" pageWidth="1169" pageHeight="1654" math="0" shadow="0">
      <root>
        <mxCell id="0" />
        <mxCell id="1" parent="0" />
        <mxCell id="bIY6zJ4Y__m4ujwSKUhP-1" value="- category берется из документа Rider&lt;br style=&quot;font-size: 10px;&quot;&gt;- categoryCurrent вычисляется ruleCategory()" style="rounded=0;whiteSpace=wrap;html=1;fontSize=10;align=left;" vertex="1" parent="1">
          <mxGeometry x="85" y="550" width="230" height="60" as="geometry" />
        </mxCell>
        <mxCell id="bIY6zJ4Y__m4ujwSKUhP-2" value="обновление данных о команде" style="text;html=1;align=center;verticalAlign=middle;resizable=0;points=[];autosize=1;strokeColor=none;fillColor=none;" vertex="1" parent="1">
          <mxGeometry x="90" y="30" width="200" height="30" as="geometry" />
        </mxCell>
        <mxCell id="bIY6zJ4Y__m4ujwSKUhP-3" style="edgeStyle=orthogonalEdgeStyle;rounded=0;orthogonalLoop=1;jettySize=auto;html=1;exitX=0.5;exitY=1;exitDx=0;exitDy=0;entryX=0.5;entryY=0;entryDx=0;entryDy=0;" edge="1" parent="1" source="bIY6zJ4Y__m4ujwSKUhP-5" target="bIY6zJ4Y__m4ujwSKUhP-1">
          <mxGeometry relative="1" as="geometry" />
        </mxCell>
        <mxCell id="bIY6zJ4Y__m4ujwSKUhP-4" style="edgeStyle=orthogonalEdgeStyle;rounded=0;orthogonalLoop=1;jettySize=auto;html=1;entryX=0;entryY=0.5;entryDx=0;entryDy=0;fontSize=10;" edge="1" parent="1" source="bIY6zJ4Y__m4ujwSKUhP-5">
          <mxGeometry relative="1" as="geometry">
            <mxPoint x="430" y="435" as="targetPoint" />
          </mxGeometry>
        </mxCell>
        <mxCell id="bIY6zJ4Y__m4ujwSKUhP-5" value="райдер зарегистрирован" style="rhombus;whiteSpace=wrap;html=1;fontSize=10;" vertex="1" parent="1">
          <mxGeometry x="50" y="370" width="300" height="130" as="geometry" />
        </mxCell>
        <mxCell id="bIY6zJ4Y__m4ujwSKUhP-6" value="да" style="text;html=1;align=center;verticalAlign=middle;resizable=0;points=[];autosize=1;strokeColor=none;fillColor=none;" vertex="1" parent="1">
          <mxGeometry x="210" y="505" width="40" height="30" as="geometry" />
        </mxCell>
        <mxCell id="bIY6zJ4Y__m4ujwSKUhP-7" value="- category не передается в БД&lt;br style=&quot;font-size: 10px;&quot;&gt;- categoryCurrent вычисляется ruleCategory()&lt;br&gt;" style="rounded=0;whiteSpace=wrap;html=1;fontSize=10;align=left;" vertex="1" parent="1">
          <mxGeometry x="430" y="405" width="230" height="60" as="geometry" />
        </mxCell>
        <mxCell id="bIY6zJ4Y__m4ujwSKUhP-8" value="нет" style="text;html=1;align=center;verticalAlign=middle;resizable=0;points=[];autosize=1;strokeColor=none;fillColor=none;fontSize=10;" vertex="1" parent="1">
          <mxGeometry x="360" y="430" width="40" height="30" as="geometry" />
        </mxCell>
        <mxCell id="bIY6zJ4Y__m4ujwSKUhP-9" value="-выбирается обновляемая серия;&lt;br&gt;-загружаются в массив все stageId серии;&lt;br&gt;-итерируются stages с загрузкой всех results со stageId с добавлением в массив;&lt;br&gt;-загружаются все райдеры с данными команды (populate(&#39;teamId&#39;)) в массив;&lt;br&gt;-итерируется массив resultes. У каждого result у райдера проверяется наличие команды, если она есть, сверяется время проведения стейджа с тем когда вступил и когда вышел райдер из команды&lt;br&gt;если всё соответствует, то добавляется название команды в результат&lt;br&gt;если у райдера нет команды, не обновлять ключ teamCurrent (команда могда удалиться, а результат пусть остаётся за ней)" style="rounded=0;whiteSpace=wrap;html=1;fontSize=10;align=left;" vertex="1" parent="1">
          <mxGeometry x="50" y="90" width="330" height="160" as="geometry" />
        </mxCell>
      </root>
    </mxGraphModel>
  </diagram>
  <diagram id="36cmjkotEJlb06e4dRGP" name="Download a protocol stage">
    <mxGraphModel dx="1310" dy="751" grid="1" gridSize="10" guides="1" tooltips="1" connect="1" arrows="1" fold="1" page="1" pageScale="1" pageWidth="1169" pageHeight="1654" math="0" shadow="0">
      <root>
        <mxCell id="0" />
        <mxCell id="1" parent="0" />
        <mxCell id="833l7JZTpHpsqaT9wxcf-2" value="Выбор файла протокола с результатами Этапа" style="rounded=0;whiteSpace=wrap;html=1;" vertex="1" parent="1">
          <mxGeometry x="160" y="40" width="210" height="80" as="geometry" />
        </mxCell>
        <mxCell id="833l7JZTpHpsqaT9wxcf-4" value="Установка категорий райдерам при загрузке протокола" style="shape=process;whiteSpace=wrap;html=1;backgroundOutline=1;" vertex="1" parent="1">
          <mxGeometry x="160" y="160" width="210" height="60" as="geometry" />
        </mxCell>
      </root>
    </mxGraphModel>
  </diagram>
  <diagram id="8yzVtFAdDHYAgiMh4WrJ" name="Categories after download">
    <mxGraphModel dx="1259" dy="751" grid="1" gridSize="10" guides="1" tooltips="1" connect="1" arrows="1" fold="1" page="1" pageScale="1" pageWidth="1169" pageHeight="1654" math="0" shadow="0">
      <root>
        <mxCell id="0" />
        <mxCell id="1" parent="0" />
        <mxCell id="cgIftb56z7w5ielThqK3-13" style="edgeStyle=orthogonalEdgeStyle;rounded=0;orthogonalLoop=1;jettySize=auto;html=1;entryX=0;entryY=0.5;entryDx=0;entryDy=0;fontSize=10;exitX=0;exitY=0.5;exitDx=0;exitDy=0;exitPerimeter=0;" edge="1" parent="1" source="cgIftb56z7w5ielThqK3-2" target="cgIftb56z7w5ielThqK3-27">
          <mxGeometry relative="1" as="geometry">
            <Array as="points">
              <mxPoint x="70" y="500" />
              <mxPoint x="70" y="310" />
            </Array>
          </mxGeometry>
        </mxCell>
        <mxCell id="cgIftb56z7w5ielThqK3-14" value="да" style="edgeLabel;html=1;align=center;verticalAlign=middle;resizable=0;points=[];fontSize=10;" vertex="1" connectable="0" parent="cgIftb56z7w5ielThqK3-13">
          <mxGeometry x="-0.9559" relative="1" as="geometry">
            <mxPoint x="-10" as="offset" />
          </mxGeometry>
        </mxCell>
        <mxCell id="cgIftb56z7w5ielThqK3-16" value="" style="edgeStyle=orthogonalEdgeStyle;rounded=0;orthogonalLoop=1;jettySize=auto;html=1;fontSize=10;" edge="1" parent="1" source="cgIftb56z7w5ielThqK3-2" target="cgIftb56z7w5ielThqK3-15">
          <mxGeometry relative="1" as="geometry" />
        </mxCell>
        <mxCell id="cgIftb56z7w5ielThqK3-17" value="нет" style="edgeLabel;html=1;align=center;verticalAlign=middle;resizable=0;points=[];fontSize=10;" vertex="1" connectable="0" parent="cgIftb56z7w5ielThqK3-16">
          <mxGeometry x="-0.1964" y="-1" relative="1" as="geometry">
            <mxPoint as="offset" />
          </mxGeometry>
        </mxCell>
        <mxCell id="cgIftb56z7w5ielThqK3-2" value="resultsDB[i]&lt;br&gt;Райдер зарегистрирован&amp;nbsp;&lt;br style=&quot;font-size: 10px;&quot;&gt;riderId !== null" style="strokeWidth=2;html=1;shape=mxgraph.flowchart.decision;whiteSpace=wrap;verticalAlign=middle;fontSize=10;" vertex="1" parent="1">
          <mxGeometry x="115" y="450" width="180" height="100" as="geometry" />
        </mxCell>
        <mxCell id="cgIftb56z7w5ielThqK3-10" value="" style="edgeStyle=orthogonalEdgeStyle;rounded=0;orthogonalLoop=1;jettySize=auto;html=1;fontSize=10;" edge="1" parent="1" source="cgIftb56z7w5ielThqK3-8" target="cgIftb56z7w5ielThqK3-9">
          <mxGeometry relative="1" as="geometry" />
        </mxCell>
        <mxCell id="cgIftb56z7w5ielThqK3-8" value="Начало" style="rounded=1;whiteSpace=wrap;html=1;fontSize=10;arcSize=50;" vertex="1" parent="1">
          <mxGeometry x="145" y="90" width="120" height="60" as="geometry" />
        </mxCell>
        <mxCell id="cgIftb56z7w5ielThqK3-34" style="edgeStyle=orthogonalEdgeStyle;rounded=0;orthogonalLoop=1;jettySize=auto;html=1;exitX=0.5;exitY=1;exitDx=0;exitDy=0;entryX=0.5;entryY=0;entryDx=0;entryDy=0;fontSize=10;" edge="1" parent="1" source="cgIftb56z7w5ielThqK3-9" target="cgIftb56z7w5ielThqK3-27">
          <mxGeometry relative="1" as="geometry" />
        </mxCell>
        <mxCell id="cgIftb56z7w5ielThqK3-9" value="Результаты&lt;br&gt;райдеров на этапе&lt;br&gt;resultsDB" style="shape=parallelogram;perimeter=parallelogramPerimeter;whiteSpace=wrap;html=1;fixedSize=1;fontSize=10;" vertex="1" parent="1">
          <mxGeometry x="145" y="180" width="120" height="60" as="geometry" />
        </mxCell>
        <mxCell id="cgIftb56z7w5ielThqK3-12" value="Конец" style="rounded=1;whiteSpace=wrap;html=1;fontSize=10;arcSize=50;" vertex="1" parent="1">
          <mxGeometry x="490" y="280" width="120" height="60" as="geometry" />
        </mxCell>
        <mxCell id="cgIftb56z7w5ielThqK3-20" style="edgeStyle=orthogonalEdgeStyle;rounded=0;orthogonalLoop=1;jettySize=auto;html=1;entryX=1;entryY=0.5;entryDx=0;entryDy=0;fontSize=10;" edge="1" parent="1" source="cgIftb56z7w5ielThqK3-15" target="cgIftb56z7w5ielThqK3-19">
          <mxGeometry relative="1" as="geometry">
            <Array as="points">
              <mxPoint x="460" y="620" />
            </Array>
          </mxGeometry>
        </mxCell>
        <mxCell id="cgIftb56z7w5ielThqK3-21" value="да" style="edgeLabel;html=1;align=center;verticalAlign=middle;resizable=0;points=[];fontSize=10;" vertex="1" connectable="0" parent="cgIftb56z7w5ielThqK3-20">
          <mxGeometry x="-0.8413" relative="1" as="geometry">
            <mxPoint as="offset" />
          </mxGeometry>
        </mxCell>
        <mxCell id="cgIftb56z7w5ielThqK3-25" style="edgeStyle=orthogonalEdgeStyle;rounded=0;orthogonalLoop=1;jettySize=auto;html=1;fontSize=10;" edge="1" parent="1" source="cgIftb56z7w5ielThqK3-15" target="cgIftb56z7w5ielThqK3-24">
          <mxGeometry relative="1" as="geometry" />
        </mxCell>
        <mxCell id="cgIftb56z7w5ielThqK3-15" value="Есть результаты &lt;br&gt;райдера с данной серии&lt;br&gt;(поиск по zwiftId)" style="strokeWidth=2;html=1;shape=mxgraph.flowchart.decision;whiteSpace=wrap;verticalAlign=middle;fontSize=10;" vertex="1" parent="1">
          <mxGeometry x="370" y="450" width="180" height="100" as="geometry" />
        </mxCell>
        <mxCell id="cgIftb56z7w5ielThqK3-18" value="&lt;span style=&quot;color: rgb(0, 0, 0); font-family: Helvetica; font-size: 12px; font-style: normal; font-variant-ligatures: normal; font-variant-caps: normal; letter-spacing: normal; orphans: 2; text-align: center; text-indent: 0px; text-transform: none; widows: 2; word-spacing: 0px; -webkit-text-stroke-width: 0px; background-color: rgb(248, 249, 250); text-decoration-thickness: initial; text-decoration-style: initial; text-decoration-color: initial; float: none; display: inline !important;&quot;&gt;Установка категорий райдерам при загрузке протокола&lt;/span&gt;" style="text;whiteSpace=wrap;html=1;fontSize=12;fontStyle=1" vertex="1" parent="1">
          <mxGeometry x="190" width="345" height="30" as="geometry" />
        </mxCell>
        <mxCell id="cgIftb56z7w5ielThqK3-28" style="edgeStyle=orthogonalEdgeStyle;rounded=0;orthogonalLoop=1;jettySize=auto;html=1;entryX=0;entryY=0.5;entryDx=0;entryDy=0;fontSize=10;" edge="1" parent="1" source="cgIftb56z7w5ielThqK3-19" target="cgIftb56z7w5ielThqK3-27">
          <mxGeometry relative="1" as="geometry">
            <Array as="points">
              <mxPoint x="50" y="620" />
              <mxPoint x="50" y="310" />
            </Array>
          </mxGeometry>
        </mxCell>
        <mxCell id="cgIftb56z7w5ielThqK3-19" value="&lt;font style=&quot;font-size: 10px;&quot;&gt;Взять категорию из прошлых результатов данной серии&amp;nbsp;&lt;/font&gt;" style="rounded=0;whiteSpace=wrap;html=1;fontSize=12;" vertex="1" parent="1">
          <mxGeometry x="150" y="590" width="120" height="60" as="geometry" />
        </mxCell>
        <mxCell id="cgIftb56z7w5ielThqK3-29" style="edgeStyle=orthogonalEdgeStyle;rounded=0;orthogonalLoop=1;jettySize=auto;html=1;exitX=0;exitY=0.5;exitDx=0;exitDy=0;entryX=0;entryY=0.5;entryDx=0;entryDy=0;fontSize=10;" edge="1" parent="1" source="cgIftb56z7w5ielThqK3-24" target="cgIftb56z7w5ielThqK3-27">
          <mxGeometry relative="1" as="geometry">
            <Array as="points">
              <mxPoint x="540" y="610" />
              <mxPoint x="540" y="660" />
              <mxPoint x="30" y="660" />
              <mxPoint x="30" y="310" />
            </Array>
          </mxGeometry>
        </mxCell>
        <mxCell id="cgIftb56z7w5ielThqK3-24" value="&lt;font style=&quot;font-size: 10px;&quot;&gt;Присвоить райдеру категорию согласно правилам серии&lt;/font&gt;" style="rounded=0;whiteSpace=wrap;html=1;fontSize=12;" vertex="1" parent="1">
          <mxGeometry x="560" y="580" width="120" height="60" as="geometry" />
        </mxCell>
        <mxCell id="cgIftb56z7w5ielThqK3-30" style="edgeStyle=orthogonalEdgeStyle;rounded=0;orthogonalLoop=1;jettySize=auto;html=1;entryX=0;entryY=0.5;entryDx=0;entryDy=0;fontSize=10;" edge="1" parent="1" source="cgIftb56z7w5ielThqK3-27" target="cgIftb56z7w5ielThqK3-12">
          <mxGeometry relative="1" as="geometry" />
        </mxCell>
        <mxCell id="cgIftb56z7w5ielThqK3-33" value="нет" style="edgeLabel;html=1;align=center;verticalAlign=middle;resizable=0;points=[];fontSize=10;" vertex="1" connectable="0" parent="cgIftb56z7w5ielThqK3-30">
          <mxGeometry x="-0.1173" relative="1" as="geometry">
            <mxPoint as="offset" />
          </mxGeometry>
        </mxCell>
        <mxCell id="cgIftb56z7w5ielThqK3-31" style="edgeStyle=orthogonalEdgeStyle;rounded=0;orthogonalLoop=1;jettySize=auto;html=1;entryX=0.5;entryY=0;entryDx=0;entryDy=0;entryPerimeter=0;fontSize=10;" edge="1" parent="1" source="cgIftb56z7w5ielThqK3-27" target="cgIftb56z7w5ielThqK3-2">
          <mxGeometry relative="1" as="geometry" />
        </mxCell>
        <mxCell id="cgIftb56z7w5ielThqK3-32" value="да" style="edgeLabel;html=1;align=center;verticalAlign=middle;resizable=0;points=[];fontSize=10;" vertex="1" connectable="0" parent="cgIftb56z7w5ielThqK3-31">
          <mxGeometry x="-0.2554" relative="1" as="geometry">
            <mxPoint as="offset" />
          </mxGeometry>
        </mxCell>
        <mxCell id="cgIftb56z7w5ielThqK3-27" value="i=0;i&amp;lt;resultsDB.length;i++" style="shape=hexagon;perimeter=hexagonPerimeter2;whiteSpace=wrap;html=1;fixedSize=1;fontSize=10;" vertex="1" parent="1">
          <mxGeometry x="115" y="270" width="180" height="80" as="geometry" />
        </mxCell>
      </root>
    </mxGraphModel>
  </diagram>
</mxfile>
